<?xml version="1.0" standalone="no"?>
<!DOCTYPE svg PUBLIC "-//W3C//DTD SVG 20010904//EN"
 "http://www.w3.org/TR/2001/REC-SVG-20010904/DTD/svg10.dtd">
<svg version="1.0" xmlns="http://www.w3.org/2000/svg"
  width="4rem" height="3rem" viewBox="0 0 464.000000 511.000000"
 preserveAspectRatio="xMidYMid meet">

<g transform="translate(0.000000,511.000000) scale(0.100000,-0.100000)"
fill="#000000" stroke="none">
<path d="M1097 4102 l-257 -257 0 -1398 0 -1397 826 0 825 0 25 -57 c95 -215
299 -386 534 -450 100 -27 301 -25 404 5 335 96 562 380 583 727 21 368 -216
702 -572 805 l-60 17 -3 1131 -2 1132 -1023 0 -1022 0 -258 -258z m2083 -980
l0 -1009 -87 -17 c-207 -41 -378 -152 -503 -329 -85 -119 -140 -288 -140 -427
l0 -60 -690 0 -690 0 0 1130 0 1130 293 2 292 3 3 293 2 292 760 0 760 0 0
-1008z m-1750 818 l0 -170 -172 0 -173 0 170 170 c93 94 171 170 172 170 2 0
3 -76 3 -170z m1972 -2076 c96 -29 170 -74 243 -148 117 -118 165 -235 165
-401 0 -164 -51 -287 -165 -400 -113 -114 -236 -165 -400 -165 -157 0 -278 47
-390 151 -147 138 -213 357 -166 549 55 224 250 398 486 434 49 7 170 -4 227
-20z"/>
<path d="M1390 3205 l0 -115 730 0 730 0 0 115 0 115 -730 0 -730 0 0 -115z"/>
<path d="M1390 2755 l0 -115 730 0 730 0 0 115 0 115 -730 0 -730 0 0 -115z"/>
<path d="M1390 2305 l0 -115 730 0 730 0 0 115 0 115 -730 0 -730 0 0 -115z"/>
<path d="M3137 1614 c-4 -4 -7 -47 -7 -95 l0 -88 -92 -3 -93 -3 0 -110 0 -110
93 -3 92 -3 0 -89 0 -90 115 0 115 0 0 90 0 90 90 0 90 0 0 115 0 115 -90 0
-89 0 -3 93 -3 92 -106 3 c-58 1 -108 -1 -112 -4z"/>
</g>
</svg>
